<svg width="833" height="755" viewBox="0 0 833 755" fill="none" xmlns="http://www.w3.org/2000/svg">
<path d="M728.405 104.034L728.405 286.152C728.405 457.603 645.411 561.508 575.784 618.485C500.79 679.82 426.187 700.666 422.934 701.511C418.463 702.728 413.747 702.728 409.276 701.511C406.023 700.666 331.518 679.82 256.426 618.485C186.994 561.508 104 457.603 104 286.152L104 104.034C104 90.2335 109.482 76.9986 119.24 67.2403C128.999 57.4821 142.234 52 156.034 52L676.371 52C690.171 52 703.406 57.4821 713.165 67.2403C722.923 76.9986 728.405 90.2335 728.405 104.034Z" fill="white"/>
<path d="M663.502 330.316C662.772 328.674 645.1 289.64 605.889 250.557C553.643 198.481 487.716 171.022 415.202 171.14C342.688 171.258 276.85 198.933 224.775 251.179C185.692 290.39 168.064 329.545 167.422 331.126C166.48 333.254 165.995 335.557 165.999 337.885C166.002 340.212 166.495 342.513 167.444 344.639C168.174 346.28 185.847 385.294 225.057 424.377C277.304 476.432 343.231 503.891 415.745 503.773C488.259 503.655 554.096 475.98 606.172 423.755C645.254 384.544 662.799 345.472 663.524 343.829C664.467 341.7 664.951 339.398 664.948 337.07C664.944 334.742 664.451 332.441 663.502 330.316ZM415.609 420.615C399.162 420.642 383.076 415.791 369.386 406.675C355.696 397.56 345.016 384.59 338.697 369.405C332.378 354.22 330.704 337.503 333.886 321.366C337.069 305.23 344.964 290.4 356.575 278.751C368.186 267.102 382.991 259.158 399.117 255.923C415.242 252.688 431.966 254.307 447.171 260.576C462.376 266.846 475.381 277.483 484.541 291.143C493.701 304.804 498.604 320.874 498.631 337.321C498.667 359.376 489.941 380.542 474.371 396.162C458.801 411.783 437.664 420.579 415.609 420.615Z" fill="black"/>
<path d="M450.735 334.193C450.746 340.534 448.875 346.736 445.361 352.014C441.847 357.292 436.846 361.409 430.992 363.846C425.137 366.282 418.692 366.927 412.471 365.7C406.249 364.473 400.532 361.429 396.041 356.953C391.549 352.476 388.487 346.768 387.239 340.551C385.992 334.334 386.617 327.887 389.034 322.024C391.451 316.162 395.552 311.148 400.818 307.616C406.085 304.085 412.281 302.194 418.622 302.184C427.122 302.181 435.276 305.549 441.296 311.549C447.316 317.55 450.711 325.693 450.735 334.193Z" fill="black"/>
<path d="M663.502 330.316C662.772 328.674 645.1 289.64 605.889 250.557C553.643 198.481 487.716 171.022 415.202 171.14C342.688 171.258 276.85 198.933 224.775 251.179C185.692 290.39 168.064 329.545 167.422 331.126C166.48 333.254 165.995 335.557 165.999 337.885C166.002 340.212 166.495 342.513 167.444 344.639C168.174 346.28 185.847 385.294 225.057 424.377C277.304 476.432 343.231 503.891 415.745 503.773C488.259 503.655 554.096 475.98 606.172 423.755C645.254 384.544 662.799 345.472 663.524 343.829C664.467 341.7 664.951 339.398 664.948 337.07C664.944 334.742 664.451 332.441 663.502 330.316ZM415.609 420.615C399.162 420.642 383.076 415.791 369.386 406.675C355.696 397.56 345.016 384.59 338.697 369.405C332.378 354.22 330.704 337.503 333.886 321.366C337.069 305.23 344.964 290.4 356.575 278.751C368.186 267.102 382.991 259.158 399.117 255.923C415.242 252.688 431.966 254.307 447.171 260.576C462.376 266.846 475.381 277.483 484.541 291.143C493.701 304.804 498.604 320.874 498.631 337.321C498.667 359.376 489.941 380.542 474.371 396.162C458.801 411.783 437.664 420.579 415.609 420.615Z" fill="black"/>
<path d="M450.735 334.193C450.746 340.534 448.875 346.736 445.361 352.014C441.847 357.292 436.846 361.409 430.992 363.846C425.137 366.282 418.692 366.927 412.471 365.7C406.249 364.473 400.532 361.429 396.041 356.953C391.549 352.476 388.487 346.768 387.239 340.551C385.992 334.334 386.617 327.887 389.034 322.024C391.451 316.162 395.552 311.148 400.818 307.616C406.085 304.085 412.281 302.194 418.622 302.184C427.122 302.181 435.276 305.549 441.296 311.549C447.316 317.55 450.711 325.693 450.735 334.193Z" fill="black"/>
</svg>
