<svg width="157" height="224" viewBox="0 0 157 224" fill="none" xmlns="http://www.w3.org/2000/svg">
<path d="M135.832 101.979L135.832 135.937C135.832 167.906 120.357 187.28 107.374 197.904C93.3903 209.341 79.4797 213.228 78.8733 213.385C78.0395 213.612 77.1603 213.612 76.3265 213.385C75.7201 213.228 61.8277 209.341 47.8261 197.904C34.8796 187.28 19.4045 167.906 19.4045 135.937L19.4045 101.979C19.4045 99.406 20.4267 96.9382 22.2463 95.1187C24.0658 93.2992 26.5336 92.277 29.1068 92.277L126.129 92.277C128.703 92.277 131.17 93.2992 132.99 95.1187C134.809 96.9382 135.832 99.406 135.832 101.979Z" fill="white"/>
<path d="M123.99 144.389C123.854 144.083 120.558 136.805 113.247 129.517C103.505 119.807 91.2126 114.687 77.6915 114.709C64.1705 114.731 51.8945 119.891 42.1844 129.633C34.897 136.945 31.61 144.245 31.4903 144.54C31.3147 144.937 31.2242 145.367 31.225 145.801C31.2257 146.235 31.3175 146.664 31.4944 147.06C31.6306 147.366 34.9258 154.641 42.2371 161.928C51.979 171.634 64.2718 176.754 77.7928 176.732C91.3138 176.71 103.59 171.55 113.3 161.812C120.587 154.501 123.859 147.215 123.994 146.909C124.17 146.512 124.26 146.083 124.259 145.649C124.259 145.215 124.167 144.786 123.99 144.389ZM77.7675 161.226C74.7007 161.231 71.7014 160.327 69.1487 158.627C66.596 156.928 64.6046 154.509 63.4264 151.678C62.2482 148.847 61.936 145.729 62.5294 142.721C63.1228 139.712 64.5951 136.946 66.76 134.774C68.925 132.602 71.6855 131.121 74.6923 130.518C77.6992 129.915 80.8174 130.217 83.6526 131.386C86.4878 132.555 88.9127 134.538 90.6207 137.085C92.3286 139.632 93.2429 142.629 93.2479 145.695C93.2546 149.808 91.6274 153.754 88.7243 156.667C85.8211 159.58 81.8799 161.22 77.7675 161.226Z" fill="black"/>
<path d="M84.3171 145.112C84.319 146.295 83.9703 147.451 83.315 148.435C82.6597 149.419 81.7273 150.187 80.6357 150.641C79.5441 151.096 78.3423 151.216 77.1823 150.987C76.0222 150.758 74.9561 150.191 74.1187 149.356C73.2813 148.521 72.7102 147.457 72.4776 146.298C72.245 145.139 72.3615 143.936 72.8122 142.843C73.2628 141.75 74.0276 140.815 75.0096 140.157C75.9916 139.498 77.1468 139.146 78.3292 139.144C79.9141 139.143 81.4345 139.771 82.557 140.89C83.6796 142.009 84.3125 143.527 84.3171 145.112Z" fill="black"/>
<path d="M123.99 144.389C123.854 144.083 120.558 136.805 113.247 129.517C103.505 119.807 91.2126 114.687 77.6915 114.709C64.1705 114.731 51.8945 119.891 42.1844 129.633C34.897 136.945 31.61 144.245 31.4903 144.54C31.3147 144.937 31.2242 145.367 31.225 145.801C31.2257 146.235 31.3175 146.664 31.4944 147.06C31.6306 147.366 34.9258 154.641 42.2371 161.928C51.979 171.634 64.2718 176.754 77.7928 176.732C91.3138 176.71 103.59 171.55 113.3 161.812C120.587 154.501 123.859 147.215 123.994 146.909C124.17 146.512 124.26 146.083 124.259 145.649C124.259 145.215 124.167 144.786 123.99 144.389ZM77.7675 161.226C74.7007 161.231 71.7014 160.327 69.1487 158.627C66.596 156.928 64.6046 154.509 63.4264 151.678C62.2482 148.847 61.936 145.729 62.5294 142.721C63.1228 139.712 64.5951 136.946 66.76 134.774C68.925 132.602 71.6855 131.121 74.6923 130.518C77.6992 129.915 80.8174 130.217 83.6526 131.386C86.4878 132.555 88.9127 134.538 90.6207 137.085C92.3286 139.632 93.2429 142.629 93.2479 145.695C93.2546 149.808 91.6274 153.754 88.7243 156.667C85.8211 159.58 81.8799 161.22 77.7675 161.226Z" fill="black"/>
<path d="M84.3171 145.112C84.319 146.295 83.9703 147.451 83.315 148.435C82.6597 149.419 81.7273 150.187 80.6357 150.641C79.5441 151.096 78.3423 151.216 77.1823 150.987C76.0222 150.758 74.9561 150.191 74.1187 149.356C73.2813 148.521 72.7102 147.457 72.4776 146.298C72.245 145.139 72.3615 143.936 72.8122 142.843C73.2628 141.75 74.0276 140.815 75.0096 140.157C75.9916 139.498 77.1468 139.146 78.3292 139.144C79.9141 139.143 81.4345 139.771 82.557 140.89C83.6796 142.009 84.3125 143.527 84.3171 145.112Z" fill="black"/>
</svg>
